<svg width="28" height="28" viewBox="0 0 28 28" fill="none" xmlns="http://www.w3.org/2000/svg">
<path d="M8.00981 9.78852C8.00981 10.28 7.61135 10.6785 7.11981 10.6785C6.62828 10.6785 6.22981 10.28 6.22981 9.78852C6.22981 9.29698 6.62828 8.89852 7.11981 8.89852C7.61135 8.89852 8.00981 9.29698 8.00981 9.78852Z" stroke="#232323" stroke-width="5.34"/>
<rect x="11.5698" y="8.89844" width="12.46" height="2.67" rx="1.335" fill="#232323"/>
<path d="M27.59 13.795C27.59 21.4138 21.4138 27.59 13.795 27.59C6.17623 27.59 0 21.4138 0 13.795C0 6.17623 6.17623 0 13.795 0C21.4138 0 27.59 6.17623 27.59 13.795Z" fill="#E0E0E0"/>
<path d="M8.00981 9.78852C8.00981 10.28 7.61135 10.6785 7.11981 10.6785C6.62828 10.6785 6.22981 10.28 6.22981 9.78852C6.22981 9.29698 6.62828 8.89852 7.11981 8.89852C7.61135 8.89852 8.00981 9.29698 8.00981 9.78852Z" stroke="#232323" stroke-width="5.34"/>
<rect x="11.5698" y="8.89844" width="12.46" height="2.67" rx="1.335" fill="#232323"/>
<path d="M19.5798 17.8013C19.5798 17.3098 19.9783 16.9113 20.4698 16.9113C20.9613 16.9113 21.3598 17.3098 21.3598 17.8013C21.3598 18.2929 20.9613 18.6913 20.4698 18.6913C19.9783 18.6913 19.5798 18.2929 19.5798 17.8013Z" stroke="#232323" stroke-width="5.34"/>
<path d="M16.0198 17.3564C16.0198 18.0937 15.4221 18.6914 14.6848 18.6914H4.89478C4.15748 18.6914 3.55978 18.0937 3.55978 17.3564V17.3564C3.55978 16.6191 4.15748 16.0214 4.89478 16.0214H14.6848C15.4221 16.0214 16.0198 16.6191 16.0198 17.3564V17.3564Z" fill="#232323"/>
</svg>
