<svg width="28" height="28" viewBox="0 0 28 28" fill="none" xmlns="http://www.w3.org/2000/svg">
<path d="M27.59 13.795C27.59 21.4138 21.4138 27.59 13.795 27.59C6.17623 27.59 0 21.4138 0 13.795C0 6.17623 6.17623 0 13.795 0C21.4138 0 27.59 6.17623 27.59 13.795Z" fill="#E0E0E0"/>
<mask id="mask0_1509_3837" style="mask-type:alpha" maskUnits="userSpaceOnUse" x="6" y="4" width="16" height="19">
<path d="M7.5 22.6667C7.08333 22.6667 6.72917 22.537 6.4375 22.2778C6.14583 22.0185 6 21.7037 6 21.3333V11.6889C6 11.3185 6.14583 11.0037 6.4375 10.7444C6.72917 10.4852 7.08333 10.3556 7.5 10.3556H9.25V8.22222C9.25 7.05185 9.7125 6.05556 10.6375 5.23333C11.5625 4.41111 12.6833 4 14 4C15.3167 4 16.4375 4.41111 17.3625 5.23333C18.2875 6.05556 18.75 7.05185 18.75 8.22222V10.3556H20.5C20.9167 10.3556 21.2708 10.4852 21.5625 10.7444C21.8542 11.0037 22 11.3185 22 11.6889V21.3333C22 21.7037 21.8542 22.0185 21.5625 22.2778C21.2708 22.537 20.9167 22.6667 20.5 22.6667H7.5ZM14 18.2222C14.5333 18.2222 14.9875 18.0593 15.3625 17.7333C15.7375 17.4074 15.925 17.0148 15.925 16.5556C15.925 16.1111 15.7375 15.7074 15.3625 15.3444C14.9875 14.9815 14.5333 14.8 14 14.8C13.4667 14.8 13.0125 14.9815 12.6375 15.3444C12.2625 15.7074 12.075 16.1111 12.075 16.5556C12.075 17.0148 12.2625 17.4074 12.6375 17.7333C13.0125 18.0593 13.4667 18.2222 14 18.2222ZM10.75 10.3556H17.25V8.22222C17.25 7.42222 16.9333 6.74074 16.3 6.17778C15.6667 5.61481 14.9 5.33333 14 5.33333C13.1 5.33333 12.3333 5.61481 11.7 6.17778C11.0667 6.74074 10.75 7.42222 10.75 8.22222V10.3556Z" fill="black"/>
</mask>
<g mask="url(#mask0_1509_3837)">
<path d="M-4 2.44531C-4 1.34074 -3.10457 0.445312 -2 0.445312H26C27.1046 0.445312 28 1.34074 28 2.44531V26.0009C28 27.1054 27.1046 28.0009 26 28.0009H-2C-3.10457 28.0009 -4 27.1054 -4 26.0009V2.44531Z" fill="#232323"/>
</g>
<rect x="11.4585" y="12.7109" width="7.52941" height="5.68889" fill="#232323"/>
</svg>
