<svg width="85" height="102" viewBox="0 0 85 102" fill="none" xmlns="http://www.w3.org/2000/svg">
<g filter="url(#filter0_d_1395_3803)">
<path d="M46.921 28.6436C48.0936 29.8162 48.7523 31.4065 48.7523 33.0647C48.7523 34.723 48.0936 36.3133 46.921 37.4859C45.7485 38.6584 44.1581 39.3172 42.4999 39.3172C40.8417 39.3172 39.2513 38.6584 38.0788 37.4859C36.9062 36.3133 36.2475 34.723 36.2475 33.0647C36.2475 31.4065 36.9062 29.8162 38.0788 28.6436C39.2513 27.4711 40.8417 26.8123 42.4999 26.8123C44.1581 26.8123 45.7485 27.4711 46.921 28.6436ZM59.0526 40.7964C61.7653 43.7034 63.8197 47.1608 65.0759 50.9332C66.1089 54.2845 66.1989 57.8555 65.336 61.2546C64.4731 64.6536 62.6908 67.7494 60.1844 70.2022L58.416 71.9707L48.6895 62.2442C47.0424 60.6129 44.818 59.6978 42.4999 59.6978C40.1818 59.6978 37.9574 60.6129 36.3103 62.2442L26.5838 71.9707L24.8154 70.2022C22.309 67.7494 20.5266 64.6536 19.6638 61.2546C18.8009 57.8555 18.8909 54.2845 19.9239 50.9332C21.1801 47.1608 23.2345 43.7034 25.9472 40.7964C25.1958 34.8922 25.8151 28.8943 27.7571 23.2683C29.6991 17.6422 32.9115 12.5394 37.145 8.35594C37.8409 7.65123 38.669 7.0908 39.5819 6.7068C40.4948 6.32279 41.4745 6.12275 42.4649 6.11815C43.4552 6.11355 44.4367 6.30448 45.3532 6.67999C46.2696 7.0555 47.1029 7.60821 47.8053 8.30642C52.0516 12.4928 55.2754 17.602 57.226 23.2369C59.1767 28.8718 59.8018 34.8807 59.0526 40.7964ZM26.7324 64.7483L30.7326 60.7481C29.1209 56.5097 27.8472 52.1504 26.9234 47.711C25.9865 49.216 25.2309 50.8265 24.6721 52.5089C24.0361 54.5682 23.8912 56.7478 24.249 58.8732C24.6067 60.9986 25.4572 63.0107 26.7324 64.7483ZM58.0764 47.711C57.1526 52.1504 55.8789 56.5097 54.2672 60.7481L58.2674 64.7483C59.5426 63.0107 60.3931 60.9986 60.7508 58.8732C61.1086 56.7478 60.9637 54.5682 60.3277 52.5089C59.7689 50.8265 59.0133 49.216 58.0764 47.711ZM44.2188 11.7938C43.7455 11.3463 43.1164 11.1011 42.4651 11.1104C41.8138 11.1196 41.1918 11.3826 40.7314 11.8433C31.8662 21.2285 29.1905 30.8966 31.5426 45.1609C32.2736 49.2161 33.3383 53.204 34.7258 57.0838C37.0164 55.5125 39.7292 54.6714 42.507 54.6714C45.2848 54.6714 47.9975 55.5125 50.2882 57.0838C51.6757 53.204 52.7404 49.2161 53.4714 45.1609C55.8093 30.8966 53.1336 21.2285 44.2188 11.7938ZM42.5017 66.2356C44.4881 66.2457 46.3903 67.0394 47.795 68.444C49.1997 69.8487 49.9933 71.7509 50.0034 73.7373C50.0017 76.9435 46.1889 82.7335 44.5495 85.0766L42.4999 87.9999L40.4503 85.0766C38.8127 82.7317 34.9981 76.9435 34.9964 73.7373C35.0431 71.7618 35.8489 69.8802 37.2465 68.4833C38.6441 67.0863 40.5261 66.2813 42.5017 66.2356ZM44.2683 71.9707C44.0367 71.7377 43.7611 71.5531 43.4575 71.4274C43.1539 71.3017 42.8284 71.2375 42.4999 71.2385C41.8367 71.2386 41.2008 71.5021 40.7318 71.971C40.2629 72.44 39.9994 73.0759 39.9993 73.7391C40.5422 75.6305 41.3866 77.4219 42.4999 79.0445C43.6126 77.4203 44.457 75.6278 45.0005 73.7356C45.001 73.4076 44.9366 73.0828 44.8109 72.7799C44.6853 72.477 44.5009 72.2019 44.2683 71.9707Z" fill="#333333"/>
</g>
<defs>
<filter id="filter0_d_1395_3803" x="13.0768" y="0.117188" width="66.8462" height="101.883" filterUnits="userSpaceOnUse" color-interpolation-filters="sRGB">
<feFlood flood-opacity="0" result="BackgroundImageFix"/>
<feColorMatrix in="SourceAlpha" type="matrix" values="0 0 0 0 0 0 0 0 0 0 0 0 0 0 0 0 0 0 127 0" result="hardAlpha"/>
<feOffset dx="4" dy="4"/>
<feGaussianBlur stdDeviation="5"/>
<feComposite in2="hardAlpha" operator="out"/>
<feColorMatrix type="matrix" values="0 0 0 0 0 0 0 0 0 0 0 0 0 0 0 0 0 0 0.25 0"/>
<feBlend mode="normal" in2="BackgroundImageFix" result="effect1_dropShadow_1395_3803"/>
<feBlend mode="normal" in="SourceGraphic" in2="effect1_dropShadow_1395_3803" result="shape"/>
</filter>
</defs>
</svg>
