<svg width="90" height="27" viewBox="0 0 90 27" fill="none" xmlns="http://www.w3.org/2000/svg">
<rect width="90" height="27" rx="13.5" fill="#E0E0E0"/>
<path fill-rule="evenodd" clip-rule="evenodd" d="M8.99977 18.95V20.3L21.826 20.3L22.2171 20.6452C22.6311 21.0107 23.2631 20.9714 23.6286 20.5574C23.9941 20.1433 23.9547 19.5114 23.5407 19.1459L21.1841 17.0656V12.065C21.1841 10.805 20.8196 9.68375 20.0904 8.70125C19.3612 7.71875 18.406 7.1 17.2248 6.845V6.1925C17.2248 5.8475 17.1045 5.5625 16.8638 5.3375C16.6232 5.1125 16.3352 5 15.9998 5C15.6644 5 15.3763 5.1125 15.1357 5.3375C14.8951 5.5625 14.7748 5.8475 14.7748 6.1925V6.845C13.5935 7.1 12.642 7.71875 11.9201 8.70125C11.8923 8.73907 11.8651 8.77709 11.8383 8.81532L10.1821 7.3532C9.76803 6.9877 9.13609 7.02705 8.77058 7.44108C8.40508 7.85512 8.44443 8.48706 8.85847 8.85256L10.9842 10.7291C10.8862 11.1556 10.8373 11.6009 10.8373 12.065L10.8373 18.95H8.99977ZM14.7748 22.4712C15.1248 22.8237 15.5331 23 15.9998 23C16.481 23 16.893 22.8237 17.2357 22.4712C17.5784 22.1187 17.7498 21.695 17.7498 21.2H14.2498C14.2498 21.695 14.4248 22.1187 14.7748 22.4712Z" fill="#232323"/>
<path d="M35.7441 8.49609V10.6875H37.2676V11.6133H35.7441V13.8047H34.6309V8.49609H35.7441ZM35.7441 14.2852V16.9453H30.0723V17.9766H36.1074V18.8672H28.9824V16.1133H34.6426V15.1523H28.959V14.2852H35.7441ZM30.4121 8.85938C32.0059 8.85938 33.166 9.82031 33.166 11.2031C33.166 12.5859 32.0059 13.5469 30.4121 13.5469C28.8184 13.5469 27.6465 12.5859 27.6582 11.2031C27.6465 9.82031 28.8184 8.85938 30.4121 8.85938ZM30.4121 9.77344C29.4395 9.77344 28.7363 10.3477 28.7363 11.2031C28.7363 12.0586 29.4395 12.6562 30.4121 12.6562C31.373 12.6562 32.0879 12.0586 32.0879 11.2031C32.0879 10.3477 31.373 9.77344 30.4121 9.77344ZM46.5723 8.50781V14.7305H45.459V8.50781H46.5723ZM43.2207 9.12891V12.082H39.5059V13.3477C41.3398 13.3535 42.6934 13.2891 44.2871 13.0312L44.4277 13.9453C42.7168 14.2148 41.2754 14.2734 39.2949 14.2617H38.416V11.2148H42.1191V10.0195H38.3926V9.12891H43.2207ZM46.5723 15.2578V18.8672H39.6699V15.2578H46.5723ZM40.7715 16.1484V17.9648H45.4824V16.1484H40.7715ZM54.7637 11.8711C54.7637 13.4883 55.748 15.1992 57.3184 15.9492L56.6855 16.793C55.543 16.2539 54.6816 15.1582 54.2363 13.875C53.7734 15.2637 52.8594 16.4238 51.6582 16.9805L51.0371 16.125C52.6309 15.3984 53.6738 13.6055 53.6738 11.8711V11.1797H51.3535V10.2891H53.6621V8.70703H54.7871V10.2891H57.0723V11.1797H54.7637V11.8711ZM59.3457 8.49609V12.7266H61.0332V13.6641H59.3457V18.9961H58.2324V8.49609H59.3457ZM69.7871 8.48438V11.5312H71.3223V12.457H69.7871V16.0898H68.6738V8.48438H69.7871ZM66.6934 9.38672V10.2891H63.1074V13.3477C65.1523 13.3535 66.3066 13.2891 67.6191 13.0195L67.748 13.9219C66.3301 14.2031 65.0879 14.2734 62.8379 14.2734H62.0059V9.38672H66.6934ZM70.2324 17.8711V18.7734H63.1309V15.3047H64.2441V17.8711H70.2324ZM80.6387 8.50781V14.8828H79.5371V8.50781H80.6387ZM71.9785 13.6172C72.8398 13.6172 73.8301 13.6113 74.8613 13.582V12.4219H72.8926V9.05859H77.9902V9.97266H74.0059V11.5312H78.0605V12.4219H75.9863V13.5234C76.918 13.4824 77.8555 13.4004 78.7402 13.2773L78.8105 14.0742C76.5254 14.4609 73.9941 14.4844 72.1074 14.4844L71.9785 13.6172ZM80.6387 15.3633V18.8672H73.6426V15.3633H80.6387ZM74.7441 16.2539V17.9648H79.5605V16.2539H74.7441Z" fill="black"/>
</svg>
