<svg width="44" height="61" viewBox="0 0 44 61" fill="none" xmlns="http://www.w3.org/2000/svg">
<g filter="url(#filter0_d_1429_3888)">
<path fill-rule="evenodd" clip-rule="evenodd" d="M35.1466 27.1221C36.9455 24.5344 38 21.3904 38 18C38 9.16344 30.8366 2 22 2C13.1634 2 6 9.16344 6 18C6 21.3907 7.05472 24.5351 8.85397 27.1229L22 50.4103L35.1466 27.1221Z" fill="#F75741"/>
<path d="M16 18.5C16 22.0899 18.9101 25 22.5 25C26.0899 25 29 22.0899 29 18.5C29 14.9101 26.0899 12 22.5 12C18.9101 12 16 14.9101 16 18.5Z" fill="white"/>
</g>
<defs>
<filter id="filter0_d_1429_3888" x="0" y="0" width="44" height="60.4102" filterUnits="userSpaceOnUse" color-interpolation-filters="sRGB">
<feFlood flood-opacity="0" result="BackgroundImageFix"/>
<feColorMatrix in="SourceAlpha" type="matrix" values="0 0 0 0 0 0 0 0 0 0 0 0 0 0 0 0 0 0 127 0" result="hardAlpha"/>
<feOffset dy="4"/>
<feGaussianBlur stdDeviation="3"/>
<feComposite in2="hardAlpha" operator="out"/>
<feColorMatrix type="matrix" values="0 0 0 0 0 0 0 0 0 0 0 0 0 0 0 0 0 0 0.3 0"/>
<feBlend mode="normal" in2="BackgroundImageFix" result="effect1_dropShadow_1429_3888"/>
<feBlend mode="normal" in="SourceGraphic" in2="effect1_dropShadow_1429_3888" result="shape"/>
</filter>
</defs>
</svg>
