<svg width="72" height="72" viewBox="0 0 72 72" fill="none" xmlns="http://www.w3.org/2000/svg">
<g filter="url(#filter0_d_1429_3894)">
<circle cx="36" cy="32" r="28" fill="#F65741"/>
<path d="M30.6328 31.3281C30.3203 30.2656 29.4609 29.6094 28.2266 29.6094C26.4766 29.6094 25.2891 30.9531 25.2891 33.3281C25.2891 35.7188 26.4453 37.0781 28.2422 37.0781C29.8594 37.0781 30.8203 36.1641 30.8516 34.7344H28.3984V32.9688H33.1172V34.375C33.1172 37.3438 31.0859 39.1562 28.2266 39.1562C25.0547 39.1562 22.8984 36.9375 22.8984 33.3594C22.8984 29.6875 25.1953 27.5312 28.1797 27.5312C30.7266 27.5312 32.6953 29.0938 33.0078 31.3281H30.6328ZM45.1953 33.3438C45.1953 37.0312 42.8984 39.1562 39.9141 39.1562C36.8984 39.1562 34.6172 37.0156 34.6172 33.3438C34.6172 29.6562 36.8984 27.5312 39.9141 27.5312C42.8984 27.5312 45.1953 29.6562 45.1953 33.3438ZM42.8047 33.3438C42.8047 30.9219 41.6641 29.6094 39.9141 29.6094C38.1641 29.6094 37.0078 30.9219 37.0078 33.3438C37.0078 35.7656 38.1641 37.0781 39.9141 37.0781C41.6641 37.0781 42.8047 35.7656 42.8047 33.3438ZM49.5859 27.6875L49.3828 35.6094H47.3828L47.1797 27.6875H49.5859ZM48.3984 39.1406C47.6641 39.1406 47.0703 38.5469 47.0859 37.8281C47.0703 37.1094 47.6641 36.5312 48.3984 36.5312C49.0859 36.5312 49.6953 37.1094 49.6953 37.8281C49.6953 38.5469 49.0859 39.1406 48.3984 39.1406Z" fill="white"/>
</g>
<defs>
<filter id="filter0_d_1429_3894" x="0" y="0" width="72" height="72" filterUnits="userSpaceOnUse" color-interpolation-filters="sRGB">
<feFlood flood-opacity="0" result="BackgroundImageFix"/>
<feColorMatrix in="SourceAlpha" type="matrix" values="0 0 0 0 0 0 0 0 0 0 0 0 0 0 0 0 0 0 127 0" result="hardAlpha"/>
<feOffset dy="4"/>
<feGaussianBlur stdDeviation="4"/>
<feComposite in2="hardAlpha" operator="out"/>
<feColorMatrix type="matrix" values="0 0 0 0 0 0 0 0 0 0 0 0 0 0 0 0 0 0 0.25 0"/>
<feBlend mode="normal" in2="BackgroundImageFix" result="effect1_dropShadow_1429_3894"/>
<feBlend mode="normal" in="SourceGraphic" in2="effect1_dropShadow_1429_3894" result="shape"/>
</filter>
</defs>
</svg>
